Coordinates
version=1
nRows=14
nColumns=36
inDegrees=yes

Units are S.I. units (second, meters, Newtons, ...)
If the header above contains a line with 'inDegrees', this indicates whether rotational values are in degrees (yes) or radians (no).

endheader
time	pelvis_tilt	pelvis_list	pelvis_rotation	pelvis_tx	pelvis_ty	pelvis_tz	hip_flexion_r	hip_adduction_r	hip_rotation_r	knee_angle_r	knee_angle_r_beta	ankle_angle_r	subtalar_angle_r	mtp_angle_r	hip_flexion_l	hip_adduction_l	hip_rotation_l	knee_angle_l	knee_angle_l_beta	ankle_angle_l	subtalar_angle_l	mtp_angle_l	lumbar_extension	lumbar_bending	lumbar_rotation	arm_flex_r	arm_add_r	arm_rot_r	elbow_flex_r	pro_sup_r	arm_flex_l	arm_add_l	arm_rot_l	elbow_flex_l	pro_sup_l
      1.13000000	      0.25029560	      0.81468440	     -1.43301541	      1.17362212	      1.14141855	     -0.18147203	     23.22510142	      1.73680133	      2.02622291	      8.91537665	      0.15560268	      2.61214231	     -2.75148990	     -6.87093920	     -9.99349440	      6.82196559	     -4.22272636	      6.05167211	      0.10562160	     13.62507017	      2.65416495	     -6.87093920	    -12.70102685	     -1.82312528	     -4.06198932	    -13.94754232	     -5.11170911	    -11.69523140	     45.50863902	    111.34092101	     -8.42699211	     -6.27519993	    -11.75437530	     56.47050836	    109.39181057
      1.14000000	      0.22177508	      0.75504779	     -1.49184354	      1.18482323	      1.14000030	     -0.18118287	     23.14236399	      2.01447226	      0.51262971	      7.89221026	      0.13774505	      3.20509900	     -1.19485417	     -6.89186868	    -10.54035736	      6.72163948	     -4.59753725	      6.15803792	      0.10747804	     14.00316659	      3.35207520	     -6.89186868	    -12.72931794	     -1.70949010	     -3.99936002	    -13.86589907	     -5.12428696	    -11.66294483	     45.53689949	    111.35161018	     -8.44571404	     -6.21919168	    -11.76738549	     56.34202136	    109.33664619
      1.15000000	      0.01484877	      0.70113636	     -1.55456731	      1.19601965	      1.13839689	     -0.18082206	     23.20411206	      2.36862163	     -0.34544908	      7.06252512	      0.12326432	      3.21146727	     -0.91806912	     -6.89780274	    -10.84973561	      6.64210148	     -4.70342016	      6.34551378	      0.11075011	     14.08536983	      3.37204287	     -6.89780274	    -12.55127040	     -1.59451570	     -3.97942674	    -13.76127186	     -5.11683706	    -11.68054244	     45.52962784	    111.34940939	     -8.52565260	     -6.17295960	    -11.79568155	     56.14347775	    109.30718883
      1.16000000	     -0.10641374	      0.63035530	     -1.58864311	      1.20740013	      1.13694042	     -0.18051745	     23.21775700	      2.71988870	     -1.29854921	      6.62354442	      0.11560266	      3.23183955	     -0.75755367	     -6.90346362	    -11.22765896	      6.54285217	     -4.80536137	      6.59208041	      0.11505351	     14.17066895	      3.41603693	     -6.90346362	    -12.45367226	     -1.43820193	     -3.96865424	    -13.66625783	     -5.12199465	    -11.70273489	     45.52926786	    111.34714963	     -8.58170488	     -6.10833332	    -11.84289300	     55.88413477	    109.27243076
      1.17000000	     -0.22938342	      0.59460386	     -1.62364391	      1.21888181	      1.13549401	     -0.18025452	     23.27184650	      3.03035882	     -2.06259327	      6.55595149	      0.11442294	      3.31253888	     -0.75685197	     -6.90823618	    -11.57286675	      6.48372383	     -4.90537841	      6.89128913	      0.12027568	     14.22296903	      3.43125401	     -6.90823618	    -12.37371343	     -1.31622797	     -3.97700255	    -13.58679941	     -5.11112143	    -11.73996700	     45.56336887	    111.34574704	     -8.65936234	     -6.02486168	    -11.88495284	     55.61867160	    109.24088950
      1.18000000	     -0.34573130	      0.55769399	     -1.63058112	      1.23053788	      1.13405686	     -0.18006402	     23.33893806	      3.31443562	     -2.63552143	      6.80922677	      0.11884343	      3.38895964	     -0.85606979	     -6.91296138	    -11.88408474	      6.41607759	     -4.97893674	      7.28922690	      0.12722101	     14.23780666	      3.42896791	     -6.91296138	    -12.28651145	     -1.16711018	     -4.01366980	    -13.52331209	     -5.10879370	    -11.80976431	     45.62234020	    111.34330418	     -8.75326079	     -5.94008136	    -11.94159624	     55.30792295	    109.20714724
      1.19000000	     -0.47469754	      0.52988687	     -1.60440297	      1.24232777	      1.13265731	     -0.17994393	     23.42532499	      3.55819241	     -2.99040068	      7.31924570	      0.12774494	      3.44307526	     -1.07292608	     -6.91816226	    -12.13920299	      6.34581243	     -5.05575973	      7.77903610	      0.13576979	     14.21895530	      3.40473414	     -6.91816226	    -12.17504668	     -1.01490713	     -4.07468290	    -13.49340832	     -5.10144068	    -11.91487519	     45.70950652	    111.33956978	     -8.85598280	     -5.83067068	    -12.00631650	     54.95204162	    109.17277710
      1.20000000	     -0.58770373	      0.50826555	     -1.55650753	      1.25423269	      1.13128674	     -0.17991120	     23.49341376	      3.77051495	     -3.04100917	      8.02643638	      0.14008774	      3.40612683	     -1.40701900	     -6.92269087	    -12.37086922	      6.27284057	     -5.12335548	      8.35123809	      0.14575660	     14.13987116	      3.34955271	     -6.92269087	    -12.07690092	     -0.84845368	     -4.16800204	    -13.46905347	     -5.10976626	    -12.04002807	     45.82123352	    111.33398163	     -8.96724430	     -5.72400554	    -12.07131044	     54.57413978	    109.14008892
      1.21000000	     -0.80314679	      0.49363783	     -1.48503928	      1.26623479	      1.12985568	     -0.17991985	     23.65951743	      3.96258104	     -2.76165625	      8.83402318	      0.15418279	      3.09510406	     -2.06684523	     -6.93111211	    -12.41136135	      6.17984020	     -5.22346769	      9.08088643	      0.15849137	     14.03201994	      3.32946836	     -6.93111211	    -11.84219287	     -0.66843164	     -4.22003264	    -13.52900100	     -5.09794430	    -12.26752086	     45.97855178	    111.31850081	     -9.04647406	     -5.57656663	    -12.15594485	     54.08941386	    109.11074163
      1.22000000	     -0.81347071	      0.45063337	     -1.39065532	      1.27842231	      1.12878872	     -0.18002172	     23.56159623	      4.13548993	     -2.35254732	      9.66113783	      0.16861866	      2.79834883	     -2.33208607	     -6.93348548	    -12.70871370	      6.06304788	     -5.15616576	      9.74359265	      0.17005777	     13.82423643	      3.31194161	     -6.93348548	    -11.86243137	     -0.44200948	     -4.35108046	    -13.48700475	     -5.12937558	    -12.36347718	     46.06819411	    111.31035767	     -9.20797621	     -5.46416590	    -12.16407649	     53.75664600	    109.08843546
      1.23000000	     -1.21275027	      0.42066087	     -1.30354883	      1.29056773	      1.12734182	     -0.18001836	     23.88079125	      4.36251170	     -1.39502506	     10.46987076	      0.18273372	      1.43403780	     -4.41266960	     -6.94711594	    -12.33695004	      5.88081683	     -5.53693356	     10.87592039	      0.18982062	     13.59750139	      3.28415786	     -6.94711594	    -11.38682304	     -0.20716793	     -4.29405252	    -13.68076069	     -5.08866907	    -12.77056746	     46.30786219	    111.25436741	     -9.20174586	     -5.25912791	    -12.28490163	     52.94258971	    109.06407020
      1.24000000	     -1.25237862	      0.34808715	     -1.18212101	      1.30285108	      1.12657654	     -0.18005201	     23.74284286	      4.59215527	     -0.30643077	     11.18488541	      0.19521308	     -0.06669175	     -6.32972836	     -6.96542462	    -12.36781024	      5.64241313	     -5.78877911	     11.95878039	      0.20872009	     13.33533962	      3.45230733	     -6.96542462	    -11.36726846	      0.07060999	     -4.30092298	    -13.74348294	     -5.09626398	    -13.07767023	     46.46259018	    111.18450520	     -9.22487259	     -5.17641878	    -12.18770878	     52.32846894	    109.09961418
      1.25000000	     -1.15017899	      0.26902083	     -1.02970325	      1.31535235	      1.12622540	     -0.18023931	     23.54986615	      4.68940966	     -0.00791225	     12.11825093	      0.21150338	     -0.57236601	     -6.87830340	     -6.96977172	    -12.46993739	      5.38720191	     -5.93999397	     13.18968598	      0.23020345	     12.74984761	      3.36360434	     -6.96977172	    -11.50054736	      0.36790565	     -4.45181728	    -13.71458326	     -5.13110500	    -13.16018146	     46.56997368	    111.16474435	     -9.36064320	     -5.00323767	    -12.23572893	     51.81820497	    109.06717772
      1.26000000	     -1.37131028	      0.08524663	     -0.93624716	      1.32779799	      1.12570605	     -0.18024501	     23.70211296	      4.97764783	      0.80904957	     13.05488367	      0.22785070	     -1.96636804	     -8.65000558	     -6.98135707	    -12.05581026	      4.96587107	     -6.30759081	     14.70132570	      0.25658654	     12.08443652	      3.44395017	     -6.98135707	    -11.22798169	      0.80236729	     -4.37620817	    -13.82167424	     -5.16772085	    -13.40886328	     46.68395495	    111.08633311	     -9.38741094	     -4.74553512	    -12.34329889	     51.00976214	    109.03908956
